<?xml version="1.0" encoding="utf-8"?>
<!-- Generator: Adobe Illustrator 21.0.2, SVG Export Plug-In . SVG Version: 6.00 Build 0)  -->
<svg version="1.1" id="Layer_1" xmlns="http://www.w3.org/2000/svg" xmlns:xlink="http://www.w3.org/1999/xlink" x="0px" y="0px"
	 viewBox="0 0 349 259.2" style="enable-background:new 0 0 349 259.2;" xml:space="preserve">
<style type="text/css">
	.st0{fill:url(#SVGID_1_);}
	.st1{fill:#2B0500;}
</style>
<linearGradient id="SVGID_1_" gradientUnits="userSpaceOnUse" x1="301.55" y1="135.55" x2="47.45" y2="389.65" gradientTransform="matrix(1 0 0 -1 0 392.2)">
	<stop  offset="0" style="stop-color:#FF7BAC"/>
	<stop  offset="0.575" style="stop-color:#FDA99A"/>
	<stop  offset="1" style="stop-color:#FBC68E"/>
	<stop  offset="1" style="stop-color:#F4CD5A"/>
	<stop  offset="1" style="stop-color:#ECD619"/>
	<stop  offset="1" style="stop-color:#E9DA00"/>
</linearGradient>
<path class="st0" d="M349,172.6l-50,86.6H199l-49.7-86h0.7l50-86.6l-0.3-0.6H299L349,172.6z M200,86.6l-0.3-0.6L150,0H50L0,86.6
	l50,86.6h100L200,86.6z"/>
<path d="M65.4,112.6c-3-2.7-4.5-6.3-4.5-10.8v-2.4c0-0.6,0.3-0.8,0.9-0.8h1.5c0.6,0,0.9,0.3,0.9,0.8v2.1c0,3.7,1.2,6.6,3.6,8.8
	c2.4,2.2,5.6,3.3,9.6,3.3c3.9,0,7-1,9.3-3.1s3.4-4.9,3.4-8.5c0-2.3-0.5-4.2-1.5-5.9c-1-1.6-2.5-3.1-4.4-4.5s-4.6-3-8.2-4.9
	c-3.7-2-6.5-3.7-8.4-5.1s-3.4-3-4.5-4.9s-1.7-4.3-1.7-7.1c0-4.4,1.4-7.8,4.1-10.3c2.7-2.4,6.4-3.7,11.1-3.7c5,0,9,1.4,11.9,4.1
	c2.9,2.7,4.4,6.4,4.4,10.9v2.1c0,0.6-0.3,0.8-0.9,0.8h-1.6c-0.6,0-0.9-0.3-0.9-0.8v-2c0-3.7-1.2-6.6-3.5-8.9
	c-2.3-2.2-5.5-3.4-9.6-3.4c-3.7,0-6.6,0.9-8.6,2.8c-2.1,1.9-3.1,4.6-3.1,8.1c0,2.2,0.5,4.1,1.4,5.6s2.2,2.8,4,4
	c1.7,1.2,4.3,2.7,7.9,4.6c3.9,2.2,6.8,4,8.9,5.6s3.7,3.3,4.8,5.3c1.1,1.9,1.7,4.2,1.7,6.9c0,4.5-1.4,8.2-4.3,10.9
	c-2.9,2.7-6.8,4.1-11.8,4.1C72.3,116.7,68.3,115.3,65.4,112.6L65.4,112.6z M103.5,113.3c-2.5-2.2-3.9-5.1-4.4-8.6
	c-0.3-2.4-0.5-5.8-0.5-10.2c0-3.8,0.2-7.1,0.5-10c0.5-3.5,1.9-6.4,4.4-8.6s5.6-3.3,9.3-3.3c3.7,0,6.9,1,9.4,3.1s4,4.6,4.4,7.6
	l0.3,1.3c0,0.6-0.3,0.9-0.8,0.9l-1.6,0.1c-0.6,0-0.9-0.3-0.9-0.8c0-0.4,0-0.7-0.1-0.8c-0.3-2.3-1.4-4.3-3.4-6s-4.4-2.5-7.4-2.5
	c-2.9,0-5.4,0.9-7.3,2.7c-1.9,1.8-3,4.1-3.3,6.9c-0.2,3.3-0.3,6.4-0.3,9.4s0.1,6.1,0.3,9.4c0.3,2.9,1.4,5.2,3.3,7s4.3,2.6,7.3,2.6
	c2.8,0,5.2-0.8,7.1-2.3c2-1.6,3.1-3.4,3.5-5.7c0.1-0.2,0.1-0.6,0.1-1c0.1-0.1,0.2-0.2,0.3-0.4c0.2-0.2,0.4-0.3,0.6-0.3l1.6,0.1
	c0.5,0,0.8,0.3,0.8,0.9l-0.1,0.8c-0.3,3.1-1.8,5.6-4.4,7.7s-5.8,3.1-9.6,3.1C109.1,116.7,106,115.6,103.5,113.3L103.5,113.3z
	 M133,63c-0.6-0.6-0.9-1.4-0.9-2.3c0-0.9,0.3-1.6,0.9-2.2c0.6-0.6,1.3-0.9,2.3-0.9c0.9,0,1.6,0.3,2.2,0.9c0.6,0.6,0.9,1.3,0.9,2.2
	c0,1-0.3,1.7-0.9,2.3s-1.3,0.9-2.2,0.9C134.4,64,133.6,63.7,133,63z M133.6,115.1v-41c0-0.6,0.3-0.9,0.9-0.9h1.6
	c0.6,0,0.9,0.3,0.9,0.9v41c0,0.6-0.3,0.9-0.9,0.9h-1.6C133.8,116,133.6,115.7,133.6,115.1z"/>
<path class="st1" d="M159,187.9c-3.9,0.5-7.8-0.3-11.7-2.3c-3.9-2-7.2-5-9.9-9.1c-2.7-4-4.3-8.7-5-14c-0.8-7,1.1-13.8,5.8-20.1
	s11.9-13,21.7-19.8c-0.9-3.4-1.5-5.8-1.7-7.2c-0.6-5.6-0.1-10.9,1.7-16.1c1.8-5.2,4.3-9.7,7.7-13.5c3.3-3.9,7-7,11-9.3
	s7.8-3.7,11.6-4.1c4.4-0.5,8.1,0.1,11,1.9s4.6,4.4,5,7.7c0.5,4.5-0.2,8.6-2,12.4c-1.9,3.8-4.4,7.3-7.7,10.5s-7.2,6.7-12,10.5
	s-7.7,6.2-8.7,7.1c2.6,6.7,6,13.5,10.5,20.4c4.6-3.9,8.1-7.4,10.6-10.4s4.6-5.7,6.2-8.2c1.7-2.5,2.8-3.8,3.5-3.8
	c0.5-0.1,1,0.5,1.4,1.7c0.5,1.2,0.8,2.5,1,3.9c0.4,3.4,0.1,6.6-0.7,9.7c-0.9,3.1-2.2,6.3-4.1,9.5s-4.3,6.7-7.2,10.4l6.1,5.3
	c0.4-0.5,1-1.2,1.6-2.1s1.1-1.5,1.5-1.9c0.3-0.3,0.7-0.5,1.2-0.6s1,0.1,1.4,0.5s0.6,0.9,0.6,1.4c0.3,2.3-0.9,6.2-3.5,11.9
	s-4.9,8.6-7,8.9c-1.1,0.1-2.2-0.2-3.4-1c-1.1-0.8-2.6-2.1-4.3-3.9c-1.7-1.8-3.1-3.4-4.2-4.7c-5.8,5.6-11,9.9-15.6,13.1
	C166.7,185.7,162.6,187.4,159,187.9L159,187.9z M163.9,133.1c-3.7,3.3-7,6.7-9.8,10.3c-2.8,3.6-4.9,7-6.4,10.3s-2.1,5.9-1.9,7.9
	c0.5,4.1,2.5,5.9,6.2,5.5c2.7-0.3,6.2-1.6,10.7-3.9c4.4-2.3,8.7-5.4,13-9.4C172.6,148.4,168.7,141.5,163.9,133.1L163.9,133.1z
	 M172.2,107.1l0.4,3.4c7.4-5.4,13-10.8,16.8-16.2c3.8-5.5,5.5-9.6,5.2-12.5c-0.3-2.5-1.7-3.6-4.1-3.3c-2.3,0.3-5,1.9-8.1,5
	c-3.2,3.1-5.8,6.8-7.8,11.1C172.5,98.8,171.8,103,172.2,107.1z"/>
<path d="M227,202.5c-2.5-1.4-4.4-3.4-5.8-6s-2-5.6-2-9v-42.2c0-0.6,0.3-0.9,0.9-0.9h1.6c0.6,0,0.9,0.3,0.9,0.9v42.5
	c0,4.1,1.2,7.5,3.6,10c2.4,2.6,5.6,3.8,9.5,3.8c4,0,7.2-1.3,9.6-3.8s3.6-5.9,3.6-10v-42.5c0-0.6,0.3-0.9,0.9-0.9h1.6
	c0.6,0,0.9,0.3,0.9,0.9v42.2c0,5.2-1.5,9.3-4.5,12.5c-3,3.1-7,4.7-12,4.7C232.4,204.7,229.5,204,227,202.5L227,202.5z M263.2,201.3
	c-2.5-2-3.7-4.6-3.7-7.6v-0.8c0-0.6,0.3-0.9,0.8-0.9h1.5c0.6,0,0.9,0.3,0.9,0.8v0.9c0,2.2,0.9,4.1,2.8,5.6s4.3,2.3,7.3,2.3
	c2.9,0,5.3-0.8,7.1-2.3c1.8-1.6,2.7-3.6,2.7-6.1c0-1.8-0.5-3.2-1.4-4.3c-1-1.1-2.1-2-3.4-2.6c-1.3-0.7-3.3-1.4-5.8-2.3
	c-2.7-0.9-4.8-1.8-6.5-2.6c-1.6-0.9-3-2-4.1-3.5s-1.7-3.4-1.7-5.7c0-3.3,1.2-6,3.6-8s5.5-3,9.4-3s7.1,1,9.5,3.1s3.6,4.7,3.6,7.9v0.3
	c0,0.6-0.3,0.9-0.9,0.9h-1.5c-0.6,0-0.9-0.2-0.9-0.6v-0.5c0-2.3-0.9-4.3-2.7-5.8c-1.8-1.6-4.2-2.3-7.2-2.3c-2.9,0-5.2,0.8-7,2.3
	s-2.6,3.4-2.6,5.8c0,1.6,0.4,3,1.3,4.1s2,2,3.3,2.6c1.3,0.7,3.2,1.4,5.5,2.3c2.8,1,5.1,1.9,6.8,2.7c1.7,0.8,3.1,2,4.3,3.5
	s1.8,3.5,1.8,6c0,3.3-1.2,6.1-3.6,8.2c-2.4,2.1-5.6,3.1-9.5,3.1C268.9,204.3,265.7,203.3,263.2,201.3L263.2,201.3z"/>
</svg>
