<svg xmlns="http://www.w3.org/2000/svg" xmlns:xlink="http://www.w3.org/1999/xlink" viewBox="0 0 681.79 182.59"><defs><style>.cls-1{fill:url(#linear-gradient);}.cls-2{fill:none;stroke:#fa9;stroke-miterlimit:10;}</style><linearGradient id="linear-gradient" x1="44.15" y1="91.3" x2="637.65" y2="91.3" gradientUnits="userSpaceOnUse"><stop offset="0" stop-color="#f79"/><stop offset="1" stop-color="#fc9"/></linearGradient></defs><title>Science and Us Logo</title><g id="Layer_2" data-name="Layer 2"><g id="Layer_1-2" data-name="Layer 1"><path class="cls-1" d="M50.26,131.47q-6-6.37-6-16.64v-3a1.15,1.15,0,0,1,1.3-1.3H52a1.15,1.15,0,0,1,1.3,1.3v2.6q0,6.89,3.51,11.11a11.27,11.27,0,0,0,9.1,4.23,11.78,11.78,0,0,0,9.1-4q3.63-4,3.64-10.66a15.53,15.53,0,0,0-1.76-7.61,20.22,20.22,0,0,0-4.55-5.59Q69.5,99.49,63,94.55a130.63,130.63,0,0,1-10.27-8.26A28,28,0,0,1,46.55,78a25.07,25.07,0,0,1-2.4-11.31q0-10.14,5.85-16.06t15.21-5.91q9.87,0,15.79,6.43t5.92,17.1v3.25a1.15,1.15,0,0,1-1.3,1.3h-6.5a1.15,1.15,0,0,1-1.3-1.3V68.16q0-6.9-3.45-11.12a11.21,11.21,0,0,0-9.16-4.22,11.09,11.09,0,0,0-8.58,3.7Q53.24,60.23,53.25,67a15.86,15.86,0,0,0,1.49,7.08,19.48,19.48,0,0,0,4.49,5.79q3,2.73,8.84,7.15A136.26,136.26,0,0,1,79.7,96.3a27,27,0,0,1,5.92,7.8,23,23,0,0,1,2.08,10.21q0,10.65-6.11,17.09a20.74,20.74,0,0,1-15.73,6.44Q56.23,137.84,50.26,131.47Z"/><path class="cls-1" d="M106.09,131.73q-6-6.12-6-16.38V67.12q0-10.14,6-16.25t16-6.11q10.14,0,16.19,6t6,16.32v2.21a1.15,1.15,0,0,1-1.3,1.3l-6.76.39a1.15,1.15,0,0,1-1.3-1.3V66.47a13.9,13.9,0,0,0-3.51-9.88,13.42,13.42,0,0,0-18.65,0,13.73,13.73,0,0,0-3.58,9.88v49.66a13.76,13.76,0,0,0,3.58,9.88,13.42,13.42,0,0,0,18.65,0,13.93,13.93,0,0,0,3.51-9.88v-3.25a1.15,1.15,0,0,1,1.3-1.3l6.76.39a1.15,1.15,0,0,1,1.3,1.3v2.08q0,10.26-6.11,16.38t-16.12,6.11Q112.14,137.84,106.09,131.73Z"/><path class="cls-1" d="M160.23,135.5V47.1a1.15,1.15,0,0,1,1.3-1.3h6.63a1.15,1.15,0,0,1,1.3,1.3v88.4a1.15,1.15,0,0,1-1.3,1.3h-6.63A1.15,1.15,0,0,1,160.23,135.5Z"/><path class="cls-1" d="M228.09,53.86H197.93a.46.46,0,0,0-.52.52V86.62a.47.47,0,0,0,.52.52h19a1.15,1.15,0,0,1,1.3,1.3V94a1.15,1.15,0,0,1-1.3,1.3h-19a.46.46,0,0,0-.52.52v32.37a.47.47,0,0,0,.52.52h30.16a1.15,1.15,0,0,1,1.3,1.3v5.46a1.15,1.15,0,0,1-1.3,1.3H189.48a1.15,1.15,0,0,1-1.3-1.3V47.1a1.15,1.15,0,0,1,1.3-1.3h38.61a1.15,1.15,0,0,1,1.3,1.3v5.46A1.15,1.15,0,0,1,228.09,53.86Z"/><path class="cls-1" d="M281.65,45.8h6.5a1.15,1.15,0,0,1,1.3,1.3v88.4a1.15,1.15,0,0,1-1.3,1.3h-7.67a1.44,1.44,0,0,1-1.43-1L253.7,68.55q-.13-.39-.39-.33c-.17,0-.26.2-.26.46l.13,66.82a1.15,1.15,0,0,1-1.3,1.3h-6.63a1.15,1.15,0,0,1-1.3-1.3V47.1a1.15,1.15,0,0,1,1.3-1.3h7.54a1.43,1.43,0,0,1,1.43,1l25.48,67.34c.09.26.22.36.39.32s.26-.19.26-.45V47.1A1.15,1.15,0,0,1,281.65,45.8Z"/><path class="cls-1" d="M311.88,131.73q-6-6.12-6.05-16.38V67.12q0-10.14,6.05-16.25t16.05-6.11q10.14,0,16.19,6t6,16.32v2.21a1.15,1.15,0,0,1-1.3,1.3L342.1,71a1.15,1.15,0,0,1-1.3-1.3V66.47a13.9,13.9,0,0,0-3.51-9.88,13.42,13.42,0,0,0-18.65,0,13.73,13.73,0,0,0-3.58,9.88v49.66a13.76,13.76,0,0,0,3.58,9.88,13.42,13.42,0,0,0,18.65,0,13.93,13.93,0,0,0,3.51-9.88v-3.25a1.15,1.15,0,0,1,1.3-1.3l6.76.39a1.15,1.15,0,0,1,1.3,1.3v2.08q0,10.26-6.11,16.38t-16.12,6.11Q317.92,137.84,311.88,131.73Z"/><path class="cls-1" d="M405.93,53.86H375.77a.46.46,0,0,0-.52.52V86.62a.46.46,0,0,0,.52.52h19a1.15,1.15,0,0,1,1.3,1.3V94a1.15,1.15,0,0,1-1.3,1.3h-19a.46.46,0,0,0-.52.52v32.37a.46.46,0,0,0,.52.52h30.16a1.15,1.15,0,0,1,1.3,1.3v5.46a1.15,1.15,0,0,1-1.3,1.3H367.32a1.15,1.15,0,0,1-1.3-1.3V47.1a1.15,1.15,0,0,1,1.3-1.3h38.61a1.15,1.15,0,0,1,1.3,1.3v5.46A1.15,1.15,0,0,1,405.93,53.86Z"/><path class="cls-1" d="M474.36,97.69a32.82,32.82,0,0,1-9.33,7.18,24.65,24.65,0,0,1-8.45,2.54,12.74,12.74,0,0,1-6.53-1,6.2,6.2,0,0,1-3.5-3.3,11.83,11.83,0,0,1-.76-7.17,16.53,16.53,0,0,1,3-6.47,20.22,20.22,0,0,1,5.52-5.08,23.32,23.32,0,0,1,6.92-3,16.55,16.55,0,0,1,7.17-.19,12.6,12.6,0,0,1,6.35,3.37l.76-18.54a3.52,3.52,0,0,1,.95-2.6,3.91,3.91,0,0,1,2.22-1.14,4.44,4.44,0,0,1,2.54.38,3.84,3.84,0,0,1,1.91,1.84l-1.65,19.68,12.69-8.13a12.79,12.79,0,0,1,1.9,1.46,4.62,4.62,0,0,1,1.27,1.91A4.35,4.35,0,0,1,497.4,82a8.08,8.08,0,0,1-1.59,3L482.1,93l.13,21.58a5.61,5.61,0,0,1-1.21,3.87,4.28,4.28,0,0,1-2.66,1.52,3.75,3.75,0,0,1-2.73-.69,3.32,3.32,0,0,1-1.27-2.92Zm-3.3-6.6a7.85,7.85,0,0,0-4.89-2.92,11.64,11.64,0,0,0-5.46.57,15.23,15.23,0,0,0-4.89,2.8,13.66,13.66,0,0,0-3.24,3.81,4.23,4.23,0,0,0-.5,3.55c.38,1.06,1.5,1.76,3.36,2.09a15.21,15.21,0,0,0,5.78-1.52,32.76,32.76,0,0,0,5.33-3.11,19,19,0,0,0,3.62-3.3C471,92,471.31,91.35,471.06,91.09Z"/><path class="cls-1" d="M541.58,131q-6.12-6.9-6.11-18.2V47.1a1.15,1.15,0,0,1,1.3-1.3h6.63a1.15,1.15,0,0,1,1.3,1.3v66.69q0,7.14,3.57,11.57a11.56,11.56,0,0,0,9.43,4.42,11.88,11.88,0,0,0,9.62-4.42q3.63-4.42,3.64-11.57V47.1a1.15,1.15,0,0,1,1.3-1.3h6.63a1.15,1.15,0,0,1,1.3,1.3v65.65q0,11.31-6.18,18.2t-16.31,6.89Q547.69,137.84,541.58,131Z"/><path class="cls-1" d="M600.21,131.47q-6-6.37-6-16.64v-3a1.15,1.15,0,0,1,1.3-1.3h6.37a1.15,1.15,0,0,1,1.3,1.3v2.6q0,6.89,3.51,11.11a11.27,11.27,0,0,0,9.1,4.23,11.78,11.78,0,0,0,9.1-4q3.63-4,3.64-10.66a15.53,15.53,0,0,0-1.75-7.61,20.08,20.08,0,0,0-4.56-5.59q-2.79-2.4-9.29-7.34t-10.27-8.26A28.17,28.17,0,0,1,596.5,78a25.07,25.07,0,0,1-2.4-11.31q0-10.14,5.85-16.06t15.21-5.91q9.87,0,15.79,6.43t5.92,17.1v3.25a1.15,1.15,0,0,1-1.3,1.3h-6.5a1.15,1.15,0,0,1-1.3-1.3V68.16q0-6.9-3.45-11.12a11.93,11.93,0,0,0-17.74-.52q-3.39,3.7-3.38,10.47a16,16,0,0,0,1.49,7.08,19.48,19.48,0,0,0,4.49,5.79q3,2.73,8.84,7.15a134.66,134.66,0,0,1,11.63,9.29,27,27,0,0,1,5.92,7.8,22.89,22.89,0,0,1,2.08,10.21q0,10.65-6.11,17.09t-15.73,6.44Q606.18,137.84,600.21,131.47Z"/><rect class="cls-2" x="0.5" y="0.5" width="680.79" height="181.59"/></g></g></svg>