<svg version="1.1" id="Layer_1" xmlns="http://www.w3.org/2000/svg" x="0" y="0" viewBox="0 0 72 72" xml:space="preserve"><style>.st1{fill:#fff}</style><path fill="#7f4df1" d="M0 0h72v72H0z" id="Twitter"/><path class="st1" d="M40.309 53.748l-1.682-2.775c5.573-3.446 8.426-8.468 8.433-14.954.008-6.49-2.836-11.517-8.431-14.998l1.676-2.769c5.138 2.627 10.107 9.029 10.172 17.63.062 8.206-4.56 14.949-10.168 17.866z"/><path class="st1" d="M34.45 43.637l-1.623-2.747c1.68-.708 2.799-1.893 3.257-3.692-.119-.008-.216-.018-.312-.019-3.317 0-6.635.002-9.952-.005-.213-.001-.321.075-.43.25-.874 1.397-2.78 1.773-4.136.824-1.347-.943-1.634-2.759-.643-4.08 1.182-1.577 3.63-1.502 4.743.156.132.195.26.262.489.262 3.317-.008 6.634-.006 9.951-.006h.331c-.424-1.859-1.527-3.116-3.298-3.856l1.616-2.74c2.722 1.11 4.92 3.842 5.027 7.615.096 3.38-1.71 6.624-5.02 8.038z"/><path class="st1" d="M37.382 22.834c4.902 2.848 7.362 7.179 7.456 12.682.097 5.744-2.359 10.27-7.45 13.278l-1.648-2.786c3.952-2.284 5.878-5.747 5.875-10.207-.003-4.449-1.927-7.902-5.874-10.187l1.64-2.78z"/></svg>