<?xml version="1.0" encoding="UTF-8" standalone="no"?>
<svg
   xmlns:dc="http://purl.org/dc/elements/1.1/"
   xmlns:cc="http://creativecommons.org/ns#"
   xmlns:rdf="http://www.w3.org/1999/02/22-rdf-syntax-ns#"
   xmlns:svg="http://www.w3.org/2000/svg"
   xmlns="http://www.w3.org/2000/svg"
   xmlns:sodipodi="http://sodipodi.sourceforge.net/DTD/sodipodi-0.dtd"
   xmlns:inkscape="http://www.inkscape.org/namespaces/inkscape"
   inkscape:version="1.0 (4035a4f, 2020-05-01)"
   sodipodi:docname="medium.svg"
   id="svg12"
   version="1.1"
   clip-rule="evenodd"
   fill-rule="evenodd"
   height="24"
   width="24">
  <metadata
     id="metadata18">
    <rdf:RDF>
      <cc:Work
         rdf:about="">
        <dc:format>image/svg+xml</dc:format>
        <dc:type
           rdf:resource="http://purl.org/dc/dcmitype/StillImage" />
        <dc:title></dc:title>
      </cc:Work>
    </rdf:RDF>
  </metadata>
  <defs
     id="defs16" />
  <sodipodi:namedview
     inkscape:current-layer="svg12"
     inkscape:window-maximized="0"
     inkscape:window-y="80"
     inkscape:window-x="378"
     inkscape:cy="12"
     inkscape:cx="12"
     inkscape:zoom="27.875"
     showgrid="false"
     id="namedview14"
     inkscape:window-height="480"
     inkscape:window-width="705"
     inkscape:pageshadow="2"
     inkscape:pageopacity="0"
     guidetolerance="10"
     gridtolerance="10"
     objecttolerance="10"
     borderopacity="1"
     bordercolor="#666666"
     pagecolor="#ffffff" />
  <path
     style="fill:#ffffff"
     id="path10"
     d="M19 24h-14c-2.761 0-5-2.239-5-5v-14c0-2.761 2.239-5 5-5h14c2.762 0 5 2.239 5 5v14c0 2.761-2.237 4.999-5 5zm.97-5.649v-.269l-1.247-1.224c-.11-.084-.165-.222-.142-.359v-8.998c-.023-.137.032-.275.142-.359l1.277-1.224v-.269h-4.422l-3.152 7.863-3.586-7.863h-4.638v.269l1.494 1.799c.146.133.221.327.201.523v7.072c.044.255-.037.516-.216.702l-1.681 2.038v.269h4.766v-.269l-1.681-2.038c-.181-.186-.266-.445-.232-.702v-6.116l4.183 9.125h.486l3.593-9.125v7.273c0 .194 0 .232-.127.359l-1.292 1.254v.269h6.274z" />
</svg>
